<svg width="14" height="18" viewBox="0 0 14 18" fill="none" xmlns="http://www.w3.org/2000/svg">
<path d="M7 17.885C4.99067 17.2883 3.32167 16.0713 1.993 14.234C0.664333 12.3967 0 10.3263 0 8.023V2.615L7 0L14 2.615V8.023C14 10.3257 13.3357 12.3957 12.007 14.233C10.6783 16.0703 9.00933 17.287 7 17.885ZM7 16.824C8.73333 16.274 10.1667 15.174 11.3 13.524C12.4333 11.874 13 10.0407 13 8.024V3.298L7 1.068L1 3.298V8.023C1 10.0397 1.56667 11.873 2.7 13.523C3.83333 15.173 5.26667 16.274 7 16.824ZM4.23 12.577H9.77V8.039H8.789V7.039C8.789 6.53967 8.61867 6.11967 8.278 5.779C7.938 5.439 7.51833 5.269 7.019 5.269C6.51967 5.269 6.1 5.439 5.76 5.779C5.42 6.119 5.25 6.539 5.25 7.039V8.039H4.23V12.577ZM6.02 8.039V7.039C6.02 6.75567 6.11567 6.518 6.307 6.326C6.49833 6.134 6.73567 6.038 7.019 6.038C7.30233 6.038 7.54 6.134 7.732 6.326C7.924 6.518 8.01967 6.75567 8.019 7.039V8.039H6.02Z" fill="#9F2A07" fill-opacity="0.1"/>
</svg>
